<svg id="Capa_1" enable-background="new 0 0 512 512" height="512" viewBox="0 0 512 512" width="512" xmlns="http://www.w3.org/2000/svg"><g><g><path d="m435.246 433.997c40.787-43.76 65.754-102.458 65.754-166.997 0-135.31-109.69-245-245-245s-245 109.69-245 245c0 64.539 24.967 123.237 65.754 166.997z" fill="#73c3f9"/></g><g><circle cx="256" cy="282" fill="#4fabf7" r="200"/></g><g><path d="m142.02 257.402-65.288 176.57c44.726 47.999 108.485 78.028 179.268 78.028s134.542-30.029 179.268-78.028l-65.288-176.57z" fill="#a05838"/></g><g><path d="m184.529 436.434c-1.822-2.954-5.713-3.825-8.616-1.921l-15.208 9.977c-4.894 3.21-11.083-1.579-9.203-7.122l7.634-22.505c1.908-5.625-4.474-10.422-9.347-7.025-4.912 3.425-11.326-1.473-9.316-7.114l51.068-143.322h-49.521l-65.288 176.57c44.726 47.999 108.485 78.028 179.268 78.028s134.542-30.029 179.268-78.028c-141.077 92.688-237.976 23.156-250.739 2.462z" fill="#934a2e"/></g><g><path d="m131.573 242.402-23.241 62.854c-2.927 7.916-.622 16.878 5.889 22.248 32.79 27.043 84.099 44.454 141.778 44.454s108.988-17.411 141.778-44.454c6.511-5.37 8.816-14.332 5.889-22.248l-23.241-62.854z" fill="#ff596e"/></g><g><path d="m131.573 242.402-23.241 62.854c-2.927 7.916-.622 16.878 5.889 22.248 23.407 19.304 56.254 33.695 94.116 40.353-54.696-49.012-15.776-125.455-15.776-125.455z" fill="#ff4155"/></g><g><circle cx="256" cy="150" fill="#b76c4e" r="150"/></g><g><path d="m200.784 150c0-66.28 42.992-122.513 102.608-142.352-14.897-4.957-30.83-7.648-47.392-7.648-82.843 0-150 67.157-150 150s14.11 150 150 150c17.816 0 33.52-1.165 47.392-3.358-91.936-14.532-102.608-74.661-102.608-146.642z" fill="#a05838"/></g><g><path d="m339.26 172.002c-32.262 32.262-37.452 79.381-11.591 105.242 3.857 3.857 8.195 7.008 12.879 9.497 57.844-23.538 65.452-75.911 65.452-136.741 0-1.99-.051-3.969-.128-5.94-22.331-1.095-47.167 8.498-66.612 27.942z" fill="#a05838"/></g><g><path d="m172.74 172.002c32.262 32.262 37.452 79.381 11.591 105.242-3.857 3.857-8.195 7.008-12.879 9.497-57.844-23.538-65.452-75.911-65.452-136.741 0-1.99.051-3.969.128-5.94 22.331-1.095 47.167 8.498 66.612 27.942z" fill="#934a2e"/></g><g><path d="m256 129.454c-25.477 0-45.938 89.374-45.938 89.374h91.877c-.001 0-20.462-89.374-45.939-89.374z" fill="#934a2e"/></g><g><path d="m296 190h-79.106c-32.975 0-60.461 26.231-60.889 59.203-.434 33.502 26.593 60.797 59.995 60.797 8.451 0 16.492-1.749 23.784-4.904 10.212-4.418 21.807-4.699 31.982-.197 7.894 3.493 16.681 5.333 25.927 5.078 31.925-.88 57.82-27.12 58.3-59.054.504-33.56-26.549-60.923-59.993-60.923z" fill="#f9ba8f"/></g><g><path d="m203.977 249.203c.428-32.972 27.914-59.203 60.889-59.203h-47.972c-32.975 0-60.462 26.231-60.889 59.203-.434 33.502 26.593 60.797 59.995 60.797 8.451 0 16.492-1.749 23.784-4.904.071-.031.144-.057.216-.087-21.432-9.353-36.347-30.853-36.023-55.806z" fill="#fcad6d"/></g><g><path d="m301.938 195.252c0 25.371-20.567 45.938-45.938 45.938s-45.938-20.567-45.938-45.938 91.876-25.371 91.876 0z" fill="#3c5082"/></g><g><path d="m253.373 195.248c0-8.551 10.443-14.216 24.283-17.003-27.22-5.481-67.594.183-67.594 17.003 0 25.371 20.567 45.938 45.938 45.938 7.832 0 15.203-1.965 21.656-5.421-14.451-7.739-24.283-22.977-24.283-40.517z" fill="#2d3c6b"/></g><g><path d="m308.71 2.87c32.29-13.56 153.648 23.478 159.136 57.779 5.488 34.302-24.176 108.124-43.829 112.171-15.107 3.111-147.596-156.39-115.307-169.95z" fill="#2d3c6b"/></g><g><path d="m203.29 2.87c-32.29-13.56-153.648 23.478-159.137 57.779s24.176 108.124 43.83 112.171c15.107 3.111 147.596-156.39 115.307-169.95z" fill="#2d3c6b"/></g><g><g><path d="m336.937 137.207c.06-4.893-1.92-9.806-5.938-13.354-6.545-5.78-16.576-5.78-23.121 0-4.019 3.549-5.998 8.462-5.938 13.354.078 6.354 7.881 9.403 12.374 4.91 2.831-2.83 7.42-2.83 10.25 0 4.492 4.493 12.295 1.443 12.373-4.91z" fill="#162544"/></g></g><g><g><path d="m175.063 137.207c-.06-4.893 1.92-9.806 5.938-13.354 6.545-5.78 16.576-5.78 23.121 0 4.019 3.549 5.998 8.462 5.938 13.354-.078 6.354-7.881 9.403-12.374 4.91-2.83-2.83-7.42-2.83-10.25 0-4.492 4.493-12.295 1.443-12.373-4.91z" fill="#162544"/></g></g><g><path d="m116.492 12.875c-36.164 11.836-69.521 30.165-72.338 47.774-5.489 34.302 24.175 108.124 43.829 112.171 2.812.579 9.694-4.479 18.821-13.18-.233-.283-.473-.564-.738-.835-19.869-20.363-36.211-125.435 10.426-145.93z" fill="#213159"/></g><g><path d="m370.777 5.907c-25.962-6.139-50.116-8.056-62.066-3.038-32.29 13.56 100.2 173.061 115.307 169.951 4.717-.971 10.011-5.97 15.257-13.469-54.058-43.709-66.172-130.159-68.498-153.444z" fill="#213159"/></g><g><circle cx="256" cy="380" fill="#ffdd40" r="50"/></g><g><path d="m256 380c0-18.504 10.059-34.648 25-43.294-7.356-4.257-15.89-6.706-25-6.706-27.614 0-50 22.386-50 50s22.386 50 50 50c9.11 0 17.644-2.449 25-6.706-14.941-8.646-25-24.79-25-43.294z" fill="#ffc839"/></g><g><circle cx="256" cy="380" fill="#ffc839" r="30"/></g><g><path d="m265.01 408.615c-5.674-8.105-9.01-17.968-9.01-28.615s3.336-20.51 9.01-28.615c-2.846-.898-5.872-1.385-9.01-1.385-16.542 0-30 13.458-30 30s13.458 30 30 30c3.138 0 6.165-.487 9.01-1.385z" fill="#ffb332"/></g></g></svg>